0
SECTION
2
HEADER
9
$INSUNITS
70
4
0
ENDSEC
0
SECTION
2
TABLES
0
TABLE
2
LTYPE
0
LTYPE
72
65
70
0
2
CONTINUOUS
3
______
73
0
40
0
0
LTYPE
72
65
70
0
2
DASHED
3
_ _ _ 
73
2
40
7.5
49
5
49
-2.5
0
LTYPE
72
65
70
0
2
DOTTED
3
. . . 
73
2
40
1.5
49
0.5
49
-1
0
ENDTAB
0
TABLE
2
LAYER
0
ENDTAB
0
ENDSEC
0
SECTION
2
ENTITIES
0
LINE
8
0
6
CONTINUOUS
10
-12.5
20
-10
11
-12.5
21
44.2792408
0
ARC
8
0
6
CONTINUOUS
10
-10
20
44.2792408
40
2.5
50
108.4349506
51
180
0
LINE
8
0
6
CONTINUOUS
10
-10.7900498
20
46.6511222
11
6.3717083
21
52.3717083
0
ARC
8
0
6
CONTINUOUS
10
7.1622777
20
50
40
2.5
50
90
51
108.4349506
0
LINE
8
0
6
CONTINUOUS
10
7.1622777
20
52.5
11
82
21
52.5
0
ARC
8
0
6
CONTINUOUS
10
82
20
50
40
2.5
50
0
51
90
0
LINE
8
0
6
CONTINUOUS
10
84.5
20
50
11
84.5
21
40.5
0
LINE
8
0
6
CONTINUOUS
10
104
20
40.5
11
84.5
21
40.5
0
ARC
8
0
6
CONTINUOUS
10
104
20
38
40
2.5
50
0
51
90
0
LINE
8
0
6
CONTINUOUS
10
106.5
20
-15.7190258
11
106.5
21
38
0
LINE
8
0
6
CONTINUOUS
10
106.5
20
-15.7190258
11
108.6089941
21
-17.1957594
0
ARC
8
0
6
CONTINUOUS
10
107.175053
20
-19.2436395
40
2.5
50
325.0000003
51
415.0000003
0
LINE
8
0
6
CONTINUOUS
10
109.2229331
20
-20.6775806
11
97.7655421
21
-37.0404307
0
ARC
8
0
6
CONTINUOUS
10
95.717662
20
-35.6064896
40
2.5
50
233.6050107
51
325.0000003
0
LINE
8
0
6
CONTINUOUS
10
94.2338499
20
-37.6185288
11
80.5068978
21
-27.5
0
LINE
8
0
6
CONTINUOUS
10
80.5068978
20
-27.5
11
62
21
-27.5
0
ARC
8
0
6
CONTINUOUS
10
62
20
-25
40
2.5
50
180
51
270
0
LINE
8
0
6
CONTINUOUS
10
59.5
20
-25
11
59.5
21
-6.5
0
LINE
8
0
6
CONTINUOUS
10
59.5
20
-6.5
11
25.3078864
21
-6.5
0
LINE
8
0
6
CONTINUOUS
10
25.3078864
20
-6.5
11
11.7795406
21
-12.2978625
0
ARC
8
0
6
CONTINUOUS
10
10.7947424
20
-10
40
2.5
50
270
51
293.1985913
0
LINE
8
0
6
CONTINUOUS
10
10.7947424
20
-12.5
11
-10
21
-12.5
0
ARC
8
0
6
CONTINUOUS
10
-10
20
-10
40
2.5
50
180
51
270
0
CIRCLE
8
0
6
CONTINUOUS
10
79
20
46.5
40
3
0
CIRCLE
8
0
6
CONTINUOUS
10
-7
20
40.5
40
3
0
CIRCLE
8
0
6
CONTINUOUS
10
-7
20
-6.5
40
3
0
CIRCLE
8
0
6
CONTINUOUS
10
65
20
-21.5
40
3
0
CIRCLE
8
0
6
CONTINUOUS
10
95.2535856
20
-31.0389189
40
3
0
CIRCLE
8
0
6
CONTINUOUS
10
100.8
20
34.5
40
3
0
ENDSEC
0
EOF