0
SECTION
2
HEADER
9
$INSUNITS
70
4
0
ENDSEC
0
SECTION
2
TABLES
0
TABLE
2
LTYPE
0
LTYPE
72
65
70
0
2
CONTINUOUS
3
______
73
0
40
0
0
LTYPE
72
65
70
0
2
DASHED
3
_ _ _ 
73
2
40
7.5
49
5
49
-2.5
0
LTYPE
72
65
70
0
2
DOTTED
3
. . . 
73
2
40
1.5
49
0.5
49
-1
0
ENDTAB
0
TABLE
2
LAYER
0
ENDTAB
0
ENDSEC
0
SECTION
2
ENTITIES
0
CIRCLE
8
0
6
CONTINUOUS
10
79
20
46.5
40
3
0
CIRCLE
8
0
6
CONTINUOUS
10
-7
20
40.5
40
3
0
CIRCLE
8
0
6
CONTINUOUS
10
-7
20
-6.5
40
3
0
CIRCLE
8
0
6
CONTINUOUS
10
65
20
-21.5
40
3
0
CIRCLE
8
0
6
CONTINUOUS
10
95.2535856
20
-31.0389189
40
3
0
CIRCLE
8
0
6
CONTINUOUS
10
100.8
20
34.5
40
3
0
ENDSEC
0
EOF