0
SECTION
2
HEADER
9
$INSUNITS
70
4
0
ENDSEC
0
SECTION
2
TABLES
0
TABLE
2
LTYPE
0
LTYPE
72
65
70
0
2
CONTINUOUS
3
______
73
0
40
0
0
LTYPE
72
65
70
0
2
DASHED
3
_ _ _ 
73
2
40
7.5
49
5
49
-2.5
0
LTYPE
72
65
70
0
2
DOTTED
3
. . . 
73
2
40
1.5
49
0.5
49
-1
0
ENDTAB
0
TABLE
2
LAYER
0
ENDTAB
0
ENDSEC
0
SECTION
2
ENTITIES
0
LINE
8
0
6
CONTINUOUS
10
-7.6
20
-7.6
11
7.6
21
-7.6
0
LINE
8
0
6
CONTINUOUS
10
7.6
20
-7.6
11
7.6
21
7.6
0
LINE
8
0
6
CONTINUOUS
10
7.6
20
7.6
11
-7.6
21
7.6
0
LINE
8
0
6
CONTINUOUS
10
-7.6
20
7.6
11
-7.6
21
-7.6
0
LINE
8
0
6
CONTINUOUS
10
-7.6
20
9.4
11
7.6
21
9.4
0
LINE
8
0
6
CONTINUOUS
10
7.6
20
9.4
11
7.6
21
24.6
0
LINE
8
0
6
CONTINUOUS
10
7.6
20
24.6
11
-7.6
21
24.6
0
LINE
8
0
6
CONTINUOUS
10
-7.6
20
24.6
11
-7.6
21
9.4
0
LINE
8
0
6
CONTINUOUS
10
-7.6
20
26.4
11
7.6
21
26.4
0
LINE
8
0
6
CONTINUOUS
10
7.6
20
26.4
11
7.6
21
41.6
0
LINE
8
0
6
CONTINUOUS
10
7.6
20
41.6
11
-7.6
21
41.6
0
LINE
8
0
6
CONTINUOUS
10
-7.6
20
41.6
11
-7.6
21
26.4
0
LINE
8
0
6
CONTINUOUS
10
10.4
20
-1.6
11
25.6
21
-1.6
0
LINE
8
0
6
CONTINUOUS
10
25.6
20
-1.6
11
25.6
21
13.6
0
LINE
8
0
6
CONTINUOUS
10
25.6
20
13.6
11
10.4
21
13.6
0
LINE
8
0
6
CONTINUOUS
10
10.4
20
13.6
11
10.4
21
-1.6
0
LINE
8
0
6
CONTINUOUS
10
10.4
20
15.4
11
25.6
21
15.4
0
LINE
8
0
6
CONTINUOUS
10
25.6
20
15.4
11
25.6
21
30.6
0
LINE
8
0
6
CONTINUOUS
10
25.6
20
30.6
11
10.4
21
30.6
0
LINE
8
0
6
CONTINUOUS
10
10.4
20
30.6
11
10.4
21
15.4
0
LINE
8
0
6
CONTINUOUS
10
10.4
20
32.4
11
25.6
21
32.4
0
LINE
8
0
6
CONTINUOUS
10
25.6
20
32.4
11
25.6
21
47.6
0
LINE
8
0
6
CONTINUOUS
10
25.6
20
47.6
11
10.4
21
47.6
0
LINE
8
0
6
CONTINUOUS
10
10.4
20
47.6
11
10.4
21
32.4
0
LINE
8
0
6
CONTINUOUS
10
28.4
20
-1.6
11
43.6
21
-1.6
0
LINE
8
0
6
CONTINUOUS
10
43.6
20
-1.6
11
43.6
21
13.6
0
LINE
8
0
6
CONTINUOUS
10
43.6
20
13.6
11
28.4
21
13.6
0
LINE
8
0
6
CONTINUOUS
10
28.4
20
13.6
11
28.4
21
-1.6
0
LINE
8
0
6
CONTINUOUS
10
28.4
20
15.4
11
43.6
21
15.4
0
LINE
8
0
6
CONTINUOUS
10
43.6
20
15.4
11
43.6
21
30.6
0
LINE
8
0
6
CONTINUOUS
10
43.6
20
30.6
11
28.4
21
30.6
0
LINE
8
0
6
CONTINUOUS
10
28.4
20
30.6
11
28.4
21
15.4
0
LINE
8
0
6
CONTINUOUS
10
28.4
20
32.4
11
43.6
21
32.4
0
LINE
8
0
6
CONTINUOUS
10
43.6
20
32.4
11
43.6
21
47.6
0
LINE
8
0
6
CONTINUOUS
10
43.6
20
47.6
11
28.4
21
47.6
0
LINE
8
0
6
CONTINUOUS
10
28.4
20
47.6
11
28.4
21
32.4
0
LINE
8
0
6
CONTINUOUS
10
46.4
20
-1.6
11
61.6
21
-1.6
0
LINE
8
0
6
CONTINUOUS
10
61.6
20
-1.6
11
61.6
21
13.6
0
LINE
8
0
6
CONTINUOUS
10
61.6
20
13.6
11
46.4
21
13.6
0
LINE
8
0
6
CONTINUOUS
10
46.4
20
13.6
11
46.4
21
-1.6
0
LINE
8
0
6
CONTINUOUS
10
46.4
20
15.4
11
61.6
21
15.4
0
LINE
8
0
6
CONTINUOUS
10
61.6
20
15.4
11
61.6
21
30.6
0
LINE
8
0
6
CONTINUOUS
10
61.6
20
30.6
11
46.4
21
30.6
0
LINE
8
0
6
CONTINUOUS
10
46.4
20
30.6
11
46.4
21
15.4
0
LINE
8
0
6
CONTINUOUS
10
46.4
20
32.4
11
61.6
21
32.4
0
LINE
8
0
6
CONTINUOUS
10
61.6
20
32.4
11
61.6
21
47.6
0
LINE
8
0
6
CONTINUOUS
10
61.6
20
47.6
11
46.4
21
47.6
0
LINE
8
0
6
CONTINUOUS
10
46.4
20
47.6
11
46.4
21
32.4
0
LINE
8
0
6
CONTINUOUS
10
64.4
20
-1.6
11
79.6
21
-1.6
0
LINE
8
0
6
CONTINUOUS
10
79.6
20
-1.6
11
79.6
21
13.6
0
LINE
8
0
6
CONTINUOUS
10
79.6
20
13.6
11
64.4
21
13.6
0
LINE
8
0
6
CONTINUOUS
10
64.4
20
13.6
11
64.4
21
-1.6
0
LINE
8
0
6
CONTINUOUS
10
64.4
20
15.4
11
79.6
21
15.4
0
LINE
8
0
6
CONTINUOUS
10
79.6
20
15.4
11
79.6
21
30.6
0
LINE
8
0
6
CONTINUOUS
10
79.6
20
30.6
11
64.4
21
30.6
0
LINE
8
0
6
CONTINUOUS
10
64.4
20
30.6
11
64.4
21
15.4
0
LINE
8
0
6
CONTINUOUS
10
64.4
20
32.4
11
79.6
21
32.4
0
LINE
8
0
6
CONTINUOUS
10
79.6
20
32.4
11
79.6
21
47.6
0
LINE
8
0
6
CONTINUOUS
10
79.6
20
47.6
11
64.4
21
47.6
0
LINE
8
0
6
CONTINUOUS
10
64.4
20
47.6
11
64.4
21
32.4
0
LINE
8
0
6
CONTINUOUS
10
64.4
20
-22.6
11
79.6
21
-22.6
0
LINE
8
0
6
CONTINUOUS
10
79.6
20
-22.6
11
79.6
21
-7.4
0
LINE
8
0
6
CONTINUOUS
10
79.6
20
-7.4
11
64.4
21
-7.4
0
LINE
8
0
6
CONTINUOUS
10
64.4
20
-7.4
11
64.4
21
-22.6
0
LINE
8
0
6
CONTINUOUS
10
82.6630316
20
-23.5657702
11
95.1141427
21
-32.2841321
0
LINE
8
0
6
CONTINUOUS
10
95.1141427
20
-32.2841321
11
103.8325046
21
-19.833021
0
LINE
8
0
6
CONTINUOUS
10
103.8325046
20
-19.833021
11
91.3813935
21
-11.1146591
0
LINE
8
0
6
CONTINUOUS
10
91.3813935
20
-11.1146591
11
82.6630316
21
-23.5657702
0
ENDSEC
0
EOF