0
SECTION
2
HEADER
9
$INSUNITS
70
4
0
ENDSEC
0
SECTION
2
TABLES
0
TABLE
2
LTYPE
0
LTYPE
72
65
70
0
2
CONTINUOUS
3
______
73
0
40
0
0
LTYPE
72
65
70
0
2
DASHED
3
_ _ _ 
73
2
40
7.5
49
5
49
-2.5
0
LTYPE
72
65
70
0
2
DOTTED
3
. . . 
73
2
40
1.5
49
0.5
49
-1
0
ENDTAB
0
TABLE
2
LAYER
0
ENDTAB
0
ENDSEC
0
SECTION
2
ENTITIES
0
LINE
8
0
6
CONTINUOUS
10
83
20
39
11
83
21
-4.00591
0
LINE
8
0
6
CONTINUOUS
10
83.1028119
20
-4.0324165
11
90.3996454
21
-6.3330993
0
LINE
8
0
6
CONTINUOUS
10
90.672516
20
-6.4676642
11
105
21
-16.4998765
0
ARC
8
0
6
CONTINUOUS
10
82.8021061
20
-4.9861334
40
1
50
72.4999991
51
78.5861725
0
ARC
8
0
6
CONTINUOUS
10
90.0989396
20
-7.2868162
40
1
50
55.0000003
51
72.4999991
0
LINE
8
0
6
CONTINUOUS
10
-6.6
20
-7.6
11
6.6
21
-7.6
0
LINE
8
0
6
CONTINUOUS
10
7.6
20
-6.6
11
7.6
21
6.6
0
LINE
8
0
6
CONTINUOUS
10
6.6
20
7.6
11
-6.6
21
7.6
0
LINE
8
0
6
CONTINUOUS
10
-7.6
20
6.6
11
-7.6
21
-6.6
0
LINE
8
0
6
CONTINUOUS
10
-6.6
20
9.4
11
6.6
21
9.4
0
LINE
8
0
6
CONTINUOUS
10
7.6
20
10.4
11
7.6
21
23.6
0
LINE
8
0
6
CONTINUOUS
10
6.6
20
24.6
11
-6.6
21
24.6
0
LINE
8
0
6
CONTINUOUS
10
-7.6
20
23.6
11
-7.6
21
10.4
0
LINE
8
0
6
CONTINUOUS
10
-6.6
20
26.4
11
6.6
21
26.4
0
LINE
8
0
6
CONTINUOUS
10
7.6
20
27.4
11
7.6
21
40.6
0
LINE
8
0
6
CONTINUOUS
10
6.6
20
41.6
11
-6.6
21
41.6
0
LINE
8
0
6
CONTINUOUS
10
-7.6
20
40.6
11
-7.6
21
27.4
0
LINE
8
0
6
CONTINUOUS
10
11.4
20
-1.6
11
24.6
21
-1.6
0
LINE
8
0
6
CONTINUOUS
10
25.6
20
-0.6
11
25.6
21
12.6
0
LINE
8
0
6
CONTINUOUS
10
24.6
20
13.6
11
11.4
21
13.6
0
LINE
8
0
6
CONTINUOUS
10
10.4
20
12.6
11
10.4
21
-0.6
0
LINE
8
0
6
CONTINUOUS
10
11.4
20
15.4
11
24.6
21
15.4
0
LINE
8
0
6
CONTINUOUS
10
25.6
20
16.4
11
25.6
21
29.6
0
LINE
8
0
6
CONTINUOUS
10
24.6
20
30.6
11
11.4
21
30.6
0
LINE
8
0
6
CONTINUOUS
10
10.4
20
29.6
11
10.4
21
16.4
0
LINE
8
0
6
CONTINUOUS
10
11.4
20
32.4
11
24.6
21
32.4
0
LINE
8
0
6
CONTINUOUS
10
25.6
20
33.4
11
25.6
21
46.6
0
LINE
8
0
6
CONTINUOUS
10
24.6
20
47.6
11
11.4
21
47.6
0
LINE
8
0
6
CONTINUOUS
10
10.4
20
46.6
11
10.4
21
33.4
0
LINE
8
0
6
CONTINUOUS
10
29.4
20
-1.6
11
42.6
21
-1.6
0
LINE
8
0
6
CONTINUOUS
10
43.6
20
-0.6
11
43.6
21
12.6
0
LINE
8
0
6
CONTINUOUS
10
42.6
20
13.6
11
29.4
21
13.6
0
LINE
8
0
6
CONTINUOUS
10
28.4
20
12.6
11
28.4
21
-0.6
0
LINE
8
0
6
CONTINUOUS
10
29.4
20
15.4
11
42.6
21
15.4
0
LINE
8
0
6
CONTINUOUS
10
43.6
20
16.4
11
43.6
21
29.6
0
LINE
8
0
6
CONTINUOUS
10
42.6
20
30.6
11
29.4
21
30.6
0
LINE
8
0
6
CONTINUOUS
10
28.4
20
29.6
11
28.4
21
16.4
0
LINE
8
0
6
CONTINUOUS
10
29.4
20
32.4
11
42.6
21
32.4
0
LINE
8
0
6
CONTINUOUS
10
43.6
20
33.4
11
43.6
21
46.6
0
LINE
8
0
6
CONTINUOUS
10
42.6
20
47.6
11
29.4
21
47.6
0
LINE
8
0
6
CONTINUOUS
10
28.4
20
46.6
11
28.4
21
33.4
0
LINE
8
0
6
CONTINUOUS
10
47.4
20
-1.6
11
60.6
21
-1.6
0
LINE
8
0
6
CONTINUOUS
10
61.6
20
-0.6
11
61.6
21
12.6
0
LINE
8
0
6
CONTINUOUS
10
60.6
20
13.6
11
47.4
21
13.6
0
LINE
8
0
6
CONTINUOUS
10
46.4
20
12.6
11
46.4
21
-0.6
0
LINE
8
0
6
CONTINUOUS
10
47.4
20
15.4
11
60.6
21
15.4
0
LINE
8
0
6
CONTINUOUS
10
61.6
20
16.4
11
61.6
21
29.6
0
LINE
8
0
6
CONTINUOUS
10
60.6
20
30.6
11
47.4
21
30.6
0
LINE
8
0
6
CONTINUOUS
10
46.4
20
29.6
11
46.4
21
16.4
0
LINE
8
0
6
CONTINUOUS
10
47.4
20
32.4
11
60.6
21
32.4
0
LINE
8
0
6
CONTINUOUS
10
61.6
20
33.4
11
61.6
21
46.6
0
LINE
8
0
6
CONTINUOUS
10
60.6
20
47.6
11
47.4
21
47.6
0
LINE
8
0
6
CONTINUOUS
10
46.4
20
46.6
11
46.4
21
33.4
0
LINE
8
0
6
CONTINUOUS
10
65.4
20
-1.6
11
78.6
21
-1.6
0
LINE
8
0
6
CONTINUOUS
10
79.6
20
-0.6
11
79.6
21
12.6
0
LINE
8
0
6
CONTINUOUS
10
78.6
20
13.6
11
65.4
21
13.6
0
LINE
8
0
6
CONTINUOUS
10
64.4
20
12.6
11
64.4
21
-0.6
0
LINE
8
0
6
CONTINUOUS
10
65.4
20
15.4
11
78.6
21
15.4
0
LINE
8
0
6
CONTINUOUS
10
79.6
20
16.4
11
79.6
21
29.6
0
LINE
8
0
6
CONTINUOUS
10
78.6
20
30.6
11
65.4
21
30.6
0
LINE
8
0
6
CONTINUOUS
10
64.4
20
29.6
11
64.4
21
16.4
0
LINE
8
0
6
CONTINUOUS
10
65.4
20
32.4
11
78.6
21
32.4
0
LINE
8
0
6
CONTINUOUS
10
79.6
20
33.4
11
79.6
21
46.6
0
LINE
8
0
6
CONTINUOUS
10
78.6
20
47.6
11
65.4
21
47.6
0
LINE
8
0
6
CONTINUOUS
10
64.4
20
46.6
11
64.4
21
33.4
0
LINE
8
0
6
CONTINUOUS
10
65.4
20
-22.6
11
78.6
21
-22.6
0
LINE
8
0
6
CONTINUOUS
10
79.6
20
-21.6
11
79.6
21
-8.4
0
LINE
8
0
6
CONTINUOUS
10
78.6
20
-7.4
11
65.4
21
-7.4
0
LINE
8
0
6
CONTINUOUS
10
64.4
20
-8.4
11
64.4
21
-21.6
0
LINE
8
0
6
CONTINUOUS
10
83.4821836
20
-24.1393466
11
94.2949907
21
-31.7105557
0
LINE
8
0
6
CONTINUOUS
10
95.6877191
20
-31.4649801
11
103.2589282
21
-20.652173
0
LINE
8
0
6
CONTINUOUS
10
103.0133526
20
-19.2594446
11
92.2005455
21
-11.6882355
0
LINE
8
0
6
CONTINUOUS
10
90.8078171
20
-11.9338111
11
83.236608
21
-22.7466182
0
ARC
8
0
6
CONTINUOUS
10
94.8685671
20
-30.8914037
40
1
50
235.0000003
51
325.0000003
0
ARC
8
0
6
CONTINUOUS
10
102.4397762
20
-20.0785966
40
1
50
325.0000003
51
55.0000003
0
ARC
8
0
6
CONTINUOUS
10
91.6269691
20
-12.5073875
40
1
50
55.0000003
51
145.0000003
0
ARC
8
0
6
CONTINUOUS
10
84.05576
20
-23.3201946
40
1
50
145.0000003
51
235.0000003
0
ARC
8
0
6
CONTINUOUS
10
78.6
20
-0.6
40
1
50
270
51
0
0
ARC
8
0
6
CONTINUOUS
10
78.6
20
12.6
40
1
50
0
51
90
0
ARC
8
0
6
CONTINUOUS
10
65.4
20
12.6
40
1
50
90
51
180
0
ARC
8
0
6
CONTINUOUS
10
65.4
20
-0.6
40
1
50
180
51
270
0
ARC
8
0
6
CONTINUOUS
10
78.6
20
16.4
40
1
50
270
51
0
0
ARC
8
0
6
CONTINUOUS
10
78.6
20
29.6
40
1
50
0
51
90
0
ARC
8
0
6
CONTINUOUS
10
65.4
20
29.6
40
1
50
90
51
180
0
ARC
8
0
6
CONTINUOUS
10
65.4
20
16.4
40
1
50
180
51
270
0
ARC
8
0
6
CONTINUOUS
10
78.6
20
-21.6
40
1
50
270
51
0
0
ARC
8
0
6
CONTINUOUS
10
78.6
20
-8.4
40
1
50
0
51
90
0
ARC
8
0
6
CONTINUOUS
10
65.4
20
-8.4
40
1
50
90
51
180
0
ARC
8
0
6
CONTINUOUS
10
65.4
20
-21.6
40
1
50
180
51
270
0
ARC
8
0
6
CONTINUOUS
10
24.6
20
16.4
40
1
50
270
51
0
0
ARC
8
0
6
CONTINUOUS
10
24.6
20
29.6
40
1
50
0
51
90
0
ARC
8
0
6
CONTINUOUS
10
11.4
20
29.6
40
1
50
90
51
180
0
ARC
8
0
6
CONTINUOUS
10
11.4
20
16.4
40
1
50
180
51
270
0
ARC
8
0
6
CONTINUOUS
10
6.6
20
-6.6
40
1
50
270
51
0
0
ARC
8
0
6
CONTINUOUS
10
6.6
20
6.6
40
1
50
0
51
90
0
ARC
8
0
6
CONTINUOUS
10
-6.6
20
6.6
40
1
50
90
51
180
0
ARC
8
0
6
CONTINUOUS
10
-6.6
20
-6.6
40
1
50
180
51
270
0
ARC
8
0
6
CONTINUOUS
10
6.6
20
10.4
40
1
50
270
51
0
0
ARC
8
0
6
CONTINUOUS
10
6.6
20
23.6
40
1
50
0
51
90
0
ARC
8
0
6
CONTINUOUS
10
-6.6
20
23.6
40
1
50
90
51
180
0
ARC
8
0
6
CONTINUOUS
10
-6.6
20
10.4
40
1
50
180
51
270
0
ARC
8
0
6
CONTINUOUS
10
24.6
20
-0.6
40
1
50
270
51
0
0
ARC
8
0
6
CONTINUOUS
10
24.6
20
12.6
40
1
50
0
51
90
0
ARC
8
0
6
CONTINUOUS
10
11.4
20
12.6
40
1
50
90
51
180
0
ARC
8
0
6
CONTINUOUS
10
11.4
20
-0.6
40
1
50
180
51
270
0
ARC
8
0
6
CONTINUOUS
10
24.6
20
33.4
40
1
50
270
51
0
0
ARC
8
0
6
CONTINUOUS
10
24.6
20
46.6
40
1
50
0
51
90
0
ARC
8
0
6
CONTINUOUS
10
11.4
20
46.6
40
1
50
90
51
180
0
ARC
8
0
6
CONTINUOUS
10
11.4
20
33.4
40
1
50
180
51
270
0
ARC
8
0
6
CONTINUOUS
10
42.6
20
-0.6
40
1
50
270
51
0
0
ARC
8
0
6
CONTINUOUS
10
42.6
20
12.6
40
1
50
0
51
90
0
ARC
8
0
6
CONTINUOUS
10
29.4
20
12.6
40
1
50
90
51
180
0
ARC
8
0
6
CONTINUOUS
10
29.4
20
-0.6
40
1
50
180
51
270
0
ARC
8
0
6
CONTINUOUS
10
42.6
20
16.4
40
1
50
270
51
0
0
ARC
8
0
6
CONTINUOUS
10
42.6
20
29.6
40
1
50
0
51
90
0
ARC
8
0
6
CONTINUOUS
10
29.4
20
29.6
40
1
50
90
51
180
0
ARC
8
0
6
CONTINUOUS
10
29.4
20
16.4
40
1
50
180
51
270
0
ARC
8
0
6
CONTINUOUS
10
60.6
20
-0.6
40
1
50
270
51
0
0
ARC
8
0
6
CONTINUOUS
10
60.6
20
12.6
40
1
50
0
51
90
0
ARC
8
0
6
CONTINUOUS
10
47.4
20
12.6
40
1
50
90
51
180
0
ARC
8
0
6
CONTINUOUS
10
47.4
20
-0.6
40
1
50
180
51
270
0
ARC
8
0
6
CONTINUOUS
10
60.6
20
16.4
40
1
50
270
51
0
0
ARC
8
0
6
CONTINUOUS
10
60.6
20
29.6
40
1
50
0
51
90
0
ARC
8
0
6
CONTINUOUS
10
47.4
20
29.6
40
1
50
90
51
180
0
ARC
8
0
6
CONTINUOUS
10
47.4
20
16.4
40
1
50
180
51
270
0
ARC
8
0
6
CONTINUOUS
10
78.6
20
33.4
40
1
50
270
51
0
0
ARC
8
0
6
CONTINUOUS
10
78.6
20
46.6
40
1
50
0
51
90
0
ARC
8
0
6
CONTINUOUS
10
65.4
20
46.6
40
1
50
90
51
180
0
ARC
8
0
6
CONTINUOUS
10
65.4
20
33.4
40
1
50
180
51
270
0
ARC
8
0
6
CONTINUOUS
10
6.6
20
27.4
40
1
50
270
51
0
0
ARC
8
0
6
CONTINUOUS
10
6.6
20
40.6
40
1
50
0
51
90
0
ARC
8
0
6
CONTINUOUS
10
-6.6
20
40.6
40
1
50
90
51
180
0
ARC
8
0
6
CONTINUOUS
10
-6.6
20
27.4
40
1
50
180
51
270
0
ARC
8
0
6
CONTINUOUS
10
42.6
20
33.4
40
1
50
270
51
0
0
ARC
8
0
6
CONTINUOUS
10
42.6
20
46.6
40
1
50
0
51
90
0
ARC
8
0
6
CONTINUOUS
10
29.4
20
46.6
40
1
50
90
51
180
0
ARC
8
0
6
CONTINUOUS
10
29.4
20
33.4
40
1
50
180
51
270
0
ARC
8
0
6
CONTINUOUS
10
60.6
20
33.4
40
1
50
270
51
0
0
ARC
8
0
6
CONTINUOUS
10
60.6
20
46.6
40
1
50
0
51
90
0
ARC
8
0
6
CONTINUOUS
10
47.4
20
46.6
40
1
50
90
51
180
0
ARC
8
0
6
CONTINUOUS
10
47.4
20
33.4
40
1
50
180
51
270
0
LINE
8
0
6
CONTINUOUS
10
-12.5
20
-10
11
-12.5
21
44.2792408
0
ARC
8
0
6
CONTINUOUS
10
-10
20
44.2792408
40
2.5
50
108.4349506
51
180
0
LINE
8
0
6
CONTINUOUS
10
-10.7900498
20
46.6511222
11
6.3717083
21
52.3717083
0
ARC
8
0
6
CONTINUOUS
10
7.1622777
20
50
40
2.5
50
90
51
108.4349506
0
LINE
8
0
6
CONTINUOUS
10
7.1622777
20
52.5
11
82
21
52.5
0
ARC
8
0
6
CONTINUOUS
10
82
20
50
40
2.5
50
0
51
90
0
LINE
8
0
6
CONTINUOUS
10
84.5
20
50
11
84.5
21
39
0
LINE
8
0
6
CONTINUOUS
10
105
20
-14.6687146
11
108.6089941
21
-17.1957595
0
ARC
8
0
6
CONTINUOUS
10
107.175053
20
-19.2436395
40
2.5
50
325.0000003
51
415.0000003
0
LINE
8
0
6
CONTINUOUS
10
109.2229331
20
-20.6775806
11
97.7655421
21
-37.0404307
0
ARC
8
0
6
CONTINUOUS
10
95.717662
20
-35.6064896
40
2.5
50
233.6050107
51
325.0000003
0
LINE
8
0
6
CONTINUOUS
10
94.2338499
20
-37.6185288
11
80.5068978
21
-27.5
0
LINE
8
0
6
CONTINUOUS
10
80.5068978
20
-27.5
11
62
21
-27.5
0
ARC
8
0
6
CONTINUOUS
10
62
20
-25
40
2.5
50
180
51
270
0
LINE
8
0
6
CONTINUOUS
10
59.5
20
-25
11
59.5
21
-6.5
0
LINE
8
0
6
CONTINUOUS
10
59.5
20
-6.5
11
25.3078864
21
-6.5
0
LINE
8
0
6
CONTINUOUS
10
25.3078864
20
-6.5
11
11.7795406
21
-12.2978625
0
ARC
8
0
6
CONTINUOUS
10
10.7947424
20
-10
40
2.5
50
270
51
293.1985913
0
LINE
8
0
6
CONTINUOUS
10
10.7947424
20
-12.5
11
-10
21
-12.5
0
ARC
8
0
6
CONTINUOUS
10
-10
20
-10
40
2.5
50
180
51
270
0
LINE
8
0
6
CONTINUOUS
10
105
20
-16.4998765
11
105
21
-14.6687146
0
LINE
8
0
6
CONTINUOUS
10
84.5
20
39
11
83
21
39
0
CIRCLE
8
0
6
CONTINUOUS
10
6
20
45.5
40
1
0
CIRCLE
8
0
6
CONTINUOUS
10
13
20
-5.5
40
1
0
CIRCLE
8
0
6
CONTINUOUS
10
85.5
20
-9
40
1
0
CIRCLE
8
0
6
CONTINUOUS
10
63
20
31.5
40
1
0
ENDSEC
0
EOF