0
SECTION
2
HEADER
9
$INSUNITS
70
4
0
ENDSEC
0
SECTION
2
TABLES
0
TABLE
2
LTYPE
0
LTYPE
72
65
70
0
2
CONTINUOUS
3
______
73
0
40
0
0
LTYPE
72
65
70
0
2
DASHED
3
_ _ _ 
73
2
40
7.5
49
5
49
-2.5
0
LTYPE
72
65
70
0
2
DOTTED
3
. . . 
73
2
40
1.5
49
0.5
49
-1
0
ENDTAB
0
TABLE
2
LAYER
0
ENDTAB
0
ENDSEC
0
SECTION
2
ENTITIES
0
LINE
8
0
6
CONTINUOUS
10
83
20
39
11
83
21
-4.00591
0
LINE
8
0
6
CONTINUOUS
10
83.1028119
20
-4.0324165
11
90.3996454
21
-6.3330993
0
LINE
8
0
6
CONTINUOUS
10
90.672516
20
-6.4676642
11
105
21
-16.4998765
0
ARC
8
0
6
CONTINUOUS
10
82.8021061
20
-4.9861334
40
1
50
72.4999991
51
78.5861725
0
ARC
8
0
6
CONTINUOUS
10
90.0989396
20
-7.2868162
40
1
50
55.0000003
51
72.4999991
0
LINE
8
0
6
CONTINUOUS
10
-6
20
-7
11
6
21
-7
0
LINE
8
0
6
CONTINUOUS
10
7
20
-6
11
7
21
6
0
LINE
8
0
6
CONTINUOUS
10
6
20
7
11
-6
21
7
0
LINE
8
0
6
CONTINUOUS
10
-7
20
6
11
-7
21
-6
0
LINE
8
0
6
CONTINUOUS
10
-6
20
10
11
6
21
10
0
LINE
8
0
6
CONTINUOUS
10
7
20
11
11
7
21
23
0
LINE
8
0
6
CONTINUOUS
10
6
20
24
11
-6
21
24
0
LINE
8
0
6
CONTINUOUS
10
-7
20
23
11
-7
21
11
0
LINE
8
0
6
CONTINUOUS
10
-6
20
27
11
6
21
27
0
LINE
8
0
6
CONTINUOUS
10
7
20
28
11
7
21
40
0
LINE
8
0
6
CONTINUOUS
10
6
20
41
11
-6
21
41
0
LINE
8
0
6
CONTINUOUS
10
-7
20
40
11
-7
21
28
0
LINE
8
0
6
CONTINUOUS
10
12
20
-1
11
24
21
-1
0
LINE
8
0
6
CONTINUOUS
10
25
20
0
11
25
21
12
0
LINE
8
0
6
CONTINUOUS
10
24
20
13
11
12
21
13
0
LINE
8
0
6
CONTINUOUS
10
11
20
12
11
11
21
0
0
LINE
8
0
6
CONTINUOUS
10
12
20
16
11
24
21
16
0
LINE
8
0
6
CONTINUOUS
10
25
20
17
11
25
21
29
0
LINE
8
0
6
CONTINUOUS
10
24
20
30
11
12
21
30
0
LINE
8
0
6
CONTINUOUS
10
11
20
29
11
11
21
17
0
LINE
8
0
6
CONTINUOUS
10
12
20
33
11
24
21
33
0
LINE
8
0
6
CONTINUOUS
10
25
20
34
11
25
21
46
0
LINE
8
0
6
CONTINUOUS
10
24
20
47
11
12
21
47
0
LINE
8
0
6
CONTINUOUS
10
11
20
46
11
11
21
34
0
LINE
8
0
6
CONTINUOUS
10
30
20
-1
11
42
21
-1
0
LINE
8
0
6
CONTINUOUS
10
43
20
0
11
43
21
12
0
LINE
8
0
6
CONTINUOUS
10
42
20
13
11
30
21
13
0
LINE
8
0
6
CONTINUOUS
10
29
20
12
11
29
21
0
0
LINE
8
0
6
CONTINUOUS
10
30
20
16
11
42
21
16
0
LINE
8
0
6
CONTINUOUS
10
43
20
17
11
43
21
29
0
LINE
8
0
6
CONTINUOUS
10
42
20
30
11
30
21
30
0
LINE
8
0
6
CONTINUOUS
10
29
20
29
11
29
21
17
0
LINE
8
0
6
CONTINUOUS
10
30
20
33
11
42
21
33
0
LINE
8
0
6
CONTINUOUS
10
43
20
34
11
43
21
46
0
LINE
8
0
6
CONTINUOUS
10
42
20
47
11
30
21
47
0
LINE
8
0
6
CONTINUOUS
10
29
20
46
11
29
21
34
0
LINE
8
0
6
CONTINUOUS
10
48
20
-1
11
60
21
-1
0
LINE
8
0
6
CONTINUOUS
10
61
20
0
11
61
21
12
0
LINE
8
0
6
CONTINUOUS
10
60
20
13
11
48
21
13
0
LINE
8
0
6
CONTINUOUS
10
47
20
12
11
47
21
0
0
LINE
8
0
6
CONTINUOUS
10
48
20
16
11
60
21
16
0
LINE
8
0
6
CONTINUOUS
10
61
20
17
11
61
21
29
0
LINE
8
0
6
CONTINUOUS
10
60
20
30
11
48
21
30
0
LINE
8
0
6
CONTINUOUS
10
47
20
29
11
47
21
17
0
LINE
8
0
6
CONTINUOUS
10
48
20
33
11
60
21
33
0
LINE
8
0
6
CONTINUOUS
10
61
20
34
11
61
21
46
0
LINE
8
0
6
CONTINUOUS
10
60
20
47
11
48
21
47
0
LINE
8
0
6
CONTINUOUS
10
47
20
46
11
47
21
34
0
LINE
8
0
6
CONTINUOUS
10
66
20
-1
11
78
21
-1
0
LINE
8
0
6
CONTINUOUS
10
79
20
0
11
79
21
12
0
LINE
8
0
6
CONTINUOUS
10
78
20
13
11
66
21
13
0
LINE
8
0
6
CONTINUOUS
10
65
20
12
11
65
21
0
0
LINE
8
0
6
CONTINUOUS
10
66
20
16
11
78
21
16
0
LINE
8
0
6
CONTINUOUS
10
79
20
17
11
79
21
29
0
LINE
8
0
6
CONTINUOUS
10
78
20
30
11
66
21
30
0
LINE
8
0
6
CONTINUOUS
10
65
20
29
11
65
21
17
0
LINE
8
0
6
CONTINUOUS
10
66
20
33
11
78
21
33
0
LINE
8
0
6
CONTINUOUS
10
79
20
34
11
79
21
46
0
LINE
8
0
6
CONTINUOUS
10
78
20
47
11
66
21
47
0
LINE
8
0
6
CONTINUOUS
10
65
20
46
11
65
21
34
0
LINE
8
0
6
CONTINUOUS
10
66
20
-22
11
78
21
-22
0
LINE
8
0
6
CONTINUOUS
10
79
20
-21
11
79
21
-9
0
LINE
8
0
6
CONTINUOUS
10
78
20
-8
11
66
21
-8
0
LINE
8
0
6
CONTINUOUS
10
65
20
-9
11
65
21
-21
0
LINE
8
0
6
CONTINUOUS
10
84.3178207
20
-23.9920013
11
94.1476454
21
-30.8749186
0
LINE
8
0
6
CONTINUOUS
10
95.5403738
20
-30.629343
11
102.4232911
21
-20.7995183
0
LINE
8
0
6
CONTINUOUS
10
102.1777155
20
-19.4067899
11
92.3478908
21
-12.5238726
0
LINE
8
0
6
CONTINUOUS
10
90.9551624
20
-12.7694482
11
84.0722451
21
-22.5992729
0
ARC
8
0
6
CONTINUOUS
10
94.7212218
20
-30.0557666
40
1
50
235.0000003
51
325.0000003
0
ARC
8
0
6
CONTINUOUS
10
101.6041391
20
-20.2259419
40
1
50
325.0000003
51
55.0000003
0
ARC
8
0
6
CONTINUOUS
10
91.7743144
20
-13.3430246
40
1
50
55.0000003
51
145.0000003
0
ARC
8
0
6
CONTINUOUS
10
84.8913971
20
-23.1728493
40
1
50
145.0000003
51
235.0000003
0
ARC
8
0
6
CONTINUOUS
10
6
20
-6
40
1
50
270
51
0
0
ARC
8
0
6
CONTINUOUS
10
6
20
6
40
1
50
0
51
90
0
ARC
8
0
6
CONTINUOUS
10
-6
20
6
40
1
50
90
51
180
0
ARC
8
0
6
CONTINUOUS
10
-6
20
-6
40
1
50
180
51
270
0
ARC
8
0
6
CONTINUOUS
10
6
20
11
40
1
50
270
51
0
0
ARC
8
0
6
CONTINUOUS
10
6
20
23
40
1
50
0
51
90
0
ARC
8
0
6
CONTINUOUS
10
-6
20
23
40
1
50
90
51
180
0
ARC
8
0
6
CONTINUOUS
10
-6
20
11
40
1
50
180
51
270
0
ARC
8
0
6
CONTINUOUS
10
6
20
28
40
1
50
270
51
0
0
ARC
8
0
6
CONTINUOUS
10
6
20
40
40
1
50
0
51
90
0
ARC
8
0
6
CONTINUOUS
10
-6
20
40
40
1
50
90
51
180
0
ARC
8
0
6
CONTINUOUS
10
-6
20
28
40
1
50
180
51
270
0
ARC
8
0
6
CONTINUOUS
10
24
20
0
40
1
50
270
51
0
0
ARC
8
0
6
CONTINUOUS
10
24
20
12
40
1
50
0
51
90
0
ARC
8
0
6
CONTINUOUS
10
12
20
12
40
1
50
90
51
180
0
ARC
8
0
6
CONTINUOUS
10
12
20
0
40
1
50
180
51
270
0
ARC
8
0
6
CONTINUOUS
10
24
20
17
40
1
50
270
51
0
0
ARC
8
0
6
CONTINUOUS
10
24
20
29
40
1
50
0
51
90
0
ARC
8
0
6
CONTINUOUS
10
12
20
29
40
1
50
90
51
180
0
ARC
8
0
6
CONTINUOUS
10
12
20
17
40
1
50
180
51
270
0
ARC
8
0
6
CONTINUOUS
10
24
20
34
40
1
50
270
51
0
0
ARC
8
0
6
CONTINUOUS
10
24
20
46
40
1
50
0
51
90
0
ARC
8
0
6
CONTINUOUS
10
12
20
46
40
1
50
90
51
180
0
ARC
8
0
6
CONTINUOUS
10
12
20
34
40
1
50
180
51
270
0
ARC
8
0
6
CONTINUOUS
10
42
20
0
40
1
50
270
51
0
0
ARC
8
0
6
CONTINUOUS
10
42
20
12
40
1
50
0
51
90
0
ARC
8
0
6
CONTINUOUS
10
30
20
12
40
1
50
90
51
180
0
ARC
8
0
6
CONTINUOUS
10
30
20
0
40
1
50
180
51
270
0
ARC
8
0
6
CONTINUOUS
10
42
20
17
40
1
50
270
51
0
0
ARC
8
0
6
CONTINUOUS
10
42
20
29
40
1
50
0
51
90
0
ARC
8
0
6
CONTINUOUS
10
30
20
29
40
1
50
90
51
180
0
ARC
8
0
6
CONTINUOUS
10
30
20
17
40
1
50
180
51
270
0
ARC
8
0
6
CONTINUOUS
10
42
20
34
40
1
50
270
51
0
0
ARC
8
0
6
CONTINUOUS
10
42
20
46
40
1
50
0
51
90
0
ARC
8
0
6
CONTINUOUS
10
30
20
46
40
1
50
90
51
180
0
ARC
8
0
6
CONTINUOUS
10
30
20
34
40
1
50
180
51
270
0
ARC
8
0
6
CONTINUOUS
10
60
20
0
40
1
50
270
51
0
0
ARC
8
0
6
CONTINUOUS
10
60
20
12
40
1
50
0
51
90
0
ARC
8
0
6
CONTINUOUS
10
48
20
12
40
1
50
90
51
180
0
ARC
8
0
6
CONTINUOUS
10
48
20
0
40
1
50
180
51
270
0
ARC
8
0
6
CONTINUOUS
10
60
20
17
40
1
50
270
51
0
0
ARC
8
0
6
CONTINUOUS
10
60
20
29
40
1
50
0
51
90
0
ARC
8
0
6
CONTINUOUS
10
48
20
29
40
1
50
90
51
180
0
ARC
8
0
6
CONTINUOUS
10
48
20
17
40
1
50
180
51
270
0
ARC
8
0
6
CONTINUOUS
10
60
20
34
40
1
50
270
51
0
0
ARC
8
0
6
CONTINUOUS
10
60
20
46
40
1
50
0
51
90
0
ARC
8
0
6
CONTINUOUS
10
48
20
46
40
1
50
90
51
180
0
ARC
8
0
6
CONTINUOUS
10
48
20
34
40
1
50
180
51
270
0
ARC
8
0
6
CONTINUOUS
10
78
20
0
40
1
50
270
51
0
0
ARC
8
0
6
CONTINUOUS
10
78
20
12
40
1
50
0
51
90
0
ARC
8
0
6
CONTINUOUS
10
66
20
12
40
1
50
90
51
180
0
ARC
8
0
6
CONTINUOUS
10
66
20
0
40
1
50
180
51
270
0
ARC
8
0
6
CONTINUOUS
10
78
20
17
40
1
50
270
51
0
0
ARC
8
0
6
CONTINUOUS
10
78
20
29
40
1
50
0
51
90
0
ARC
8
0
6
CONTINUOUS
10
66
20
29
40
1
50
90
51
180
0
ARC
8
0
6
CONTINUOUS
10
66
20
17
40
1
50
180
51
270
0
ARC
8
0
6
CONTINUOUS
10
78
20
34
40
1
50
270
51
0
0
ARC
8
0
6
CONTINUOUS
10
78
20
46
40
1
50
0
51
90
0
ARC
8
0
6
CONTINUOUS
10
66
20
46
40
1
50
90
51
180
0
ARC
8
0
6
CONTINUOUS
10
66
20
34
40
1
50
180
51
270
0
ARC
8
0
6
CONTINUOUS
10
78
20
-21
40
1
50
270
51
0
0
ARC
8
0
6
CONTINUOUS
10
78
20
-9
40
1
50
0
51
90
0
ARC
8
0
6
CONTINUOUS
10
66
20
-9
40
1
50
90
51
180
0
ARC
8
0
6
CONTINUOUS
10
66
20
-21
40
1
50
180
51
270
0
LINE
8
0
6
CONTINUOUS
10
-12.5
20
-10
11
-12.5
21
44.2792408
0
ARC
8
0
6
CONTINUOUS
10
-10
20
44.2792408
40
2.5
50
108.4349506
51
180
0
LINE
8
0
6
CONTINUOUS
10
-10.7900498
20
46.6511222
11
6.3717083
21
52.3717083
0
ARC
8
0
6
CONTINUOUS
10
7.1622777
20
50
40
2.5
50
90
51
108.4349506
0
LINE
8
0
6
CONTINUOUS
10
7.1622777
20
52.5
11
82
21
52.5
0
ARC
8
0
6
CONTINUOUS
10
82
20
50
40
2.5
50
0
51
90
0
LINE
8
0
6
CONTINUOUS
10
84.5
20
50
11
84.5
21
39
0
LINE
8
0
6
CONTINUOUS
10
105
20
-14.6687146
11
108.6089941
21
-17.1957595
0
ARC
8
0
6
CONTINUOUS
10
107.175053
20
-19.2436395
40
2.5
50
325.0000003
51
415.0000003
0
LINE
8
0
6
CONTINUOUS
10
109.2229331
20
-20.6775806
11
97.7655421
21
-37.0404307
0
ARC
8
0
6
CONTINUOUS
10
95.717662
20
-35.6064896
40
2.5
50
233.6050107
51
325.0000003
0
LINE
8
0
6
CONTINUOUS
10
94.2338499
20
-37.6185288
11
80.5068978
21
-27.5
0
LINE
8
0
6
CONTINUOUS
10
80.5068978
20
-27.5
11
62
21
-27.5
0
ARC
8
0
6
CONTINUOUS
10
62
20
-25
40
2.5
50
180
51
270
0
LINE
8
0
6
CONTINUOUS
10
59.5
20
-25
11
59.5
21
-6.5
0
LINE
8
0
6
CONTINUOUS
10
59.5
20
-6.5
11
25.3078864
21
-6.5
0
LINE
8
0
6
CONTINUOUS
10
25.3078864
20
-6.5
11
11.7795406
21
-12.2978625
0
ARC
8
0
6
CONTINUOUS
10
10.7947424
20
-10
40
2.5
50
270
51
293.1985913
0
LINE
8
0
6
CONTINUOUS
10
10.7947424
20
-12.5
11
-10
21
-12.5
0
ARC
8
0
6
CONTINUOUS
10
-10
20
-10
40
2.5
50
180
51
270
0
LINE
8
0
6
CONTINUOUS
10
105
20
-16.4998765
11
105
21
-14.6687146
0
LINE
8
0
6
CONTINUOUS
10
84.5
20
39
11
83
21
39
0
CIRCLE
8
0
6
CONTINUOUS
10
6
20
45.5
40
1
0
CIRCLE
8
0
6
CONTINUOUS
10
13
20
-5.5
40
1
0
CIRCLE
8
0
6
CONTINUOUS
10
85.5
20
-9
40
1
0
CIRCLE
8
0
6
CONTINUOUS
10
63
20
31.5
40
1
0
ENDSEC
0
EOF