0
SECTION
2
HEADER
9
$INSUNITS
70
4
0
ENDSEC
0
SECTION
2
TABLES
0
TABLE
2
LTYPE
0
LTYPE
72
65
70
64
2
CONTINUOUS
3
______
73
0
40
0
0
ENDTAB
0
TABLE
2
LAYER
0
ENDTAB
0
ENDSEC
0
SECTION
2
ENTITIES
0
LINE
8
0
10
-8.25
20
-8.25
11
8.25
21
-8.25
0
LINE
8
0
10
8.25
20
-8.25
11
8.25
21
8.25
0
LINE
8
0
10
8.25
20
8.25
11
-8.25
21
8.25
0
LINE
8
0
10
-8.25
20
8.25
11
-8.25
21
-8.25
0
LINE
8
0
10
-8.25
20
8.75
11
8.25
21
8.75
0
LINE
8
0
10
8.25
20
8.75
11
8.25
21
25.25
0
LINE
8
0
10
8.25
20
25.25
11
-8.25
21
25.25
0
LINE
8
0
10
-8.25
20
25.25
11
-8.25
21
8.75
0
LINE
8
0
10
-8.25
20
25.75
11
8.25
21
25.75
0
LINE
8
0
10
8.25
20
25.75
11
8.25
21
42.25
0
LINE
8
0
10
8.25
20
42.25
11
-8.25
21
42.25
0
LINE
8
0
10
-8.25
20
42.25
11
-8.25
21
25.75
0
LINE
8
0
10
9.75
20
-2.25
11
26.25
21
-2.25
0
LINE
8
0
10
26.25
20
-2.25
11
26.25
21
14.25
0
LINE
8
0
10
26.25
20
14.25
11
9.75
21
14.25
0
LINE
8
0
10
9.75
20
14.25
11
9.75
21
-2.25
0
LINE
8
0
10
9.75
20
14.75
11
26.25
21
14.75
0
LINE
8
0
10
26.25
20
14.75
11
26.25
21
31.25
0
LINE
8
0
10
26.25
20
31.25
11
9.75
21
31.25
0
LINE
8
0
10
9.75
20
31.25
11
9.75
21
14.75
0
LINE
8
0
10
9.75
20
31.75
11
26.25
21
31.75
0
LINE
8
0
10
26.25
20
31.75
11
26.25
21
48.25
0
LINE
8
0
10
26.25
20
48.25
11
9.75
21
48.25
0
LINE
8
0
10
9.75
20
48.25
11
9.75
21
31.75
0
LINE
8
0
10
27.75
20
-2.25
11
44.25
21
-2.25
0
LINE
8
0
10
44.25
20
-2.25
11
44.25
21
14.25
0
LINE
8
0
10
44.25
20
14.25
11
27.75
21
14.25
0
LINE
8
0
10
27.75
20
14.25
11
27.75
21
-2.25
0
LINE
8
0
10
27.75
20
14.75
11
44.25
21
14.75
0
LINE
8
0
10
44.25
20
14.75
11
44.25
21
31.25
0
LINE
8
0
10
44.25
20
31.25
11
27.75
21
31.25
0
LINE
8
0
10
27.75
20
31.25
11
27.75
21
14.75
0
LINE
8
0
10
27.75
20
31.75
11
44.25
21
31.75
0
LINE
8
0
10
44.25
20
31.75
11
44.25
21
48.25
0
LINE
8
0
10
44.25
20
48.25
11
27.75
21
48.25
0
LINE
8
0
10
27.75
20
48.25
11
27.75
21
31.75
0
LINE
8
0
10
45.75
20
-2.25
11
62.25
21
-2.25
0
LINE
8
0
10
62.25
20
-2.25
11
62.25
21
14.25
0
LINE
8
0
10
62.25
20
14.25
11
45.75
21
14.25
0
LINE
8
0
10
45.75
20
14.25
11
45.75
21
-2.25
0
LINE
8
0
10
45.75
20
14.75
11
62.25
21
14.75
0
LINE
8
0
10
62.25
20
14.75
11
62.25
21
31.25
0
LINE
8
0
10
62.25
20
31.25
11
45.75
21
31.25
0
LINE
8
0
10
45.75
20
31.25
11
45.75
21
14.75
0
LINE
8
0
10
45.75
20
31.75
11
62.25
21
31.75
0
LINE
8
0
10
62.25
20
31.75
11
62.25
21
48.25
0
LINE
8
0
10
62.25
20
48.25
11
45.75
21
48.25
0
LINE
8
0
10
45.75
20
48.25
11
45.75
21
31.75
0
LINE
8
0
10
63.75
20
-2.25
11
80.25
21
-2.25
0
LINE
8
0
10
80.25
20
-2.25
11
80.25
21
14.25
0
LINE
8
0
10
80.25
20
14.25
11
63.75
21
14.25
0
LINE
8
0
10
63.75
20
14.25
11
63.75
21
-2.25
0
LINE
8
0
10
63.75
20
14.75
11
80.25
21
14.75
0
LINE
8
0
10
80.25
20
14.75
11
80.25
21
31.25
0
LINE
8
0
10
80.25
20
31.25
11
63.75
21
31.25
0
LINE
8
0
10
63.75
20
31.25
11
63.75
21
14.75
0
LINE
8
0
10
63.75
20
31.75
11
80.25
21
31.75
0
LINE
8
0
10
80.25
20
31.75
11
80.25
21
48.25
0
LINE
8
0
10
80.25
20
48.25
11
63.75
21
48.25
0
LINE
8
0
10
63.75
20
48.25
11
63.75
21
31.75
0
LINE
8
0
10
63.75
20
-23.25
11
80.25
21
-23.25
0
LINE
8
0
10
80.25
20
-23.25
11
80.25
21
-6.75
0
LINE
8
0
10
80.25
20
-6.75
11
63.75
21
-6.75
0
LINE
8
0
10
63.75
20
-6.75
11
63.75
21
-23.25
0
LINE
8
0
10
81.7577581
20
-23.7253944
11
95.2737669
21
-33.1894056
0
LINE
8
0
10
95.2737669
20
-33.1894056
11
104.7377781
21
-19.6733968
0
LINE
8
0
10
104.7377781
20
-19.6733968
11
91.2217693
21
-10.2093856
0
LINE
8
0
10
91.2217693
20
-10.2093856
11
81.7577581
21
-23.7253944
0
ENDSEC
0
EOF