0
SECTION
2
HEADER
9
$INSUNITS
70
4
0
ENDSEC
0
SECTION
2
TABLES
0
TABLE
2
LTYPE
0
LTYPE
72
65
70
0
2
CONTINUOUS
3
______
73
0
40
0
0
LTYPE
72
65
70
0
2
DASHED
3
_ _ _ 
73
2
40
7.5
49
5
49
-2.5
0
LTYPE
72
65
70
0
2
DOTTED
3
. . . 
73
2
40
1.5
49
0.5
49
-1
0
ENDTAB
0
TABLE
2
LAYER
0
ENDTAB
0
ENDSEC
0
SECTION
2
ENTITIES
0
LINE
8
0
6
CONTINUOUS
10
25
20
-5
11
61
21
-5
0
LINE
8
0
6
CONTINUOUS
10
105
20
-15.9793095
11
105
21
38
0
LINE
8
0
6
CONTINUOUS
10
104
20
39
11
84
21
39
0
LINE
8
0
6
CONTINUOUS
10
61
20
-25
11
61
21
-5
0
LINE
8
0
6
CONTINUOUS
10
105.4264236
20
-16.7984615
11
107.7486294
21
-18.4244875
0
LINE
8
0
6
CONTINUOUS
10
107.994205
20
-19.8172159
11
96.536814
21
-36.180066
0
LINE
8
0
6
CONTINUOUS
10
95.1243135
20
-36.4114353
11
81.2646137
21
-26.1950543
0
LINE
8
0
6
CONTINUOUS
10
80.6712652
20
-26
11
62
21
-26
0
ARC
8
0
6
CONTINUOUS
10
107.175053
20
-19.2436395
40
1
50
325.0000003
51
55.0000003
0
ARC
8
0
6
CONTINUOUS
10
95.717662
20
-35.6064896
40
1
50
233.6050107
51
325.0000003
0
ARC
8
0
6
CONTINUOUS
10
80.6712652
20
-27
40
1
50
53.6050107
51
90
0
ARC
8
0
6
CONTINUOUS
10
62
20
-25
40
1
50
180
51
270
0
ARC
8
0
6
CONTINUOUS
10
84
20
40
40
1
50
180
51
270
0
ARC
8
0
6
CONTINUOUS
10
104
20
38
40
1
50
0
51
90
0
ARC
8
0
6
CONTINUOUS
10
106
20
-15.9793095
40
1
50
180
51
234.9743789
0
ARC
8
0
6
CONTINUOUS
10
60
20
-6
40
1
50
0
51
90
0
ARC
8
0
6
CONTINUOUS
10
25.2052576
20
-6
40
1
50
90
51
113.1985913
0
LINE
8
0
6
CONTINUOUS
10
83
20
40
11
83
21
-4.00591
0
LINE
8
0
6
CONTINUOUS
10
25
20
-5
11
24.8113383
21
-5.080855
0
LINE
8
0
6
CONTINUOUS
10
83.1028119
20
-4.0324165
11
90.3996454
21
-6.3330993
0
LINE
8
0
6
CONTINUOUS
10
90.672516
20
-6.4676642
11
105.4260573
21
-16.798205
0
ARC
8
0
6
CONTINUOUS
10
82.8021061
20
-4.9861334
40
1
50
72.4999991
51
78.5861725
0
ARC
8
0
6
CONTINUOUS
10
90.0989396
20
-7.2868162
40
1
50
55.0000003
51
72.4999991
0
ENDSEC
0
EOF