0
SECTION
2
HEADER
9
$INSUNITS
70
4
0
ENDSEC
0
SECTION
2
TABLES
0
TABLE
2
LTYPE
0
LTYPE
72
65
70
64
2
CONTINUOUS
3
______
73
0
40
0
0
ENDTAB
0
TABLE
2
LAYER
0
ENDTAB
0
ENDSEC
0
SECTION
2
ENTITIES
0
LINE
8
0
10
-7
20
-7
11
7
21
-7
0
LINE
8
0
10
7
20
-7
11
7
21
7
0
LINE
8
0
10
7
20
7
11
-7
21
7
0
LINE
8
0
10
-7
20
7
11
-7
21
-7
0
LINE
8
0
10
-7
20
10
11
7
21
10
0
LINE
8
0
10
7
20
10
11
7
21
24
0
LINE
8
0
10
7
20
24
11
-7
21
24
0
LINE
8
0
10
-7
20
24
11
-7
21
10
0
LINE
8
0
10
-7
20
27
11
7
21
27
0
LINE
8
0
10
7
20
27
11
7
21
41
0
LINE
8
0
10
7
20
41
11
-7
21
41
0
LINE
8
0
10
-7
20
41
11
-7
21
27
0
LINE
8
0
10
11
20
-1
11
25
21
-1
0
LINE
8
0
10
25
20
-1
11
25
21
13
0
LINE
8
0
10
25
20
13
11
11
21
13
0
LINE
8
0
10
11
20
13
11
11
21
-1
0
LINE
8
0
10
11
20
16
11
25
21
16
0
LINE
8
0
10
25
20
16
11
25
21
30
0
LINE
8
0
10
25
20
30
11
11
21
30
0
LINE
8
0
10
11
20
30
11
11
21
16
0
LINE
8
0
10
11
20
33
11
25
21
33
0
LINE
8
0
10
25
20
33
11
25
21
47
0
LINE
8
0
10
25
20
47
11
11
21
47
0
LINE
8
0
10
11
20
47
11
11
21
33
0
LINE
8
0
10
29
20
-1
11
43
21
-1
0
LINE
8
0
10
43
20
-1
11
43
21
13
0
LINE
8
0
10
43
20
13
11
29
21
13
0
LINE
8
0
10
29
20
13
11
29
21
-1
0
LINE
8
0
10
29
20
16
11
43
21
16
0
LINE
8
0
10
43
20
16
11
43
21
30
0
LINE
8
0
10
43
20
30
11
29
21
30
0
LINE
8
0
10
29
20
30
11
29
21
16
0
LINE
8
0
10
29
20
33
11
43
21
33
0
LINE
8
0
10
43
20
33
11
43
21
47
0
LINE
8
0
10
43
20
47
11
29
21
47
0
LINE
8
0
10
29
20
47
11
29
21
33
0
LINE
8
0
10
47
20
-1
11
61
21
-1
0
LINE
8
0
10
61
20
-1
11
61
21
13
0
LINE
8
0
10
61
20
13
11
47
21
13
0
LINE
8
0
10
47
20
13
11
47
21
-1
0
LINE
8
0
10
47
20
16
11
61
21
16
0
LINE
8
0
10
61
20
16
11
61
21
30
0
LINE
8
0
10
61
20
30
11
47
21
30
0
LINE
8
0
10
47
20
30
11
47
21
16
0
LINE
8
0
10
47
20
33
11
61
21
33
0
LINE
8
0
10
61
20
33
11
61
21
47
0
LINE
8
0
10
61
20
47
11
47
21
47
0
LINE
8
0
10
47
20
47
11
47
21
33
0
LINE
8
0
10
65
20
-1
11
79
21
-1
0
LINE
8
0
10
79
20
-1
11
79
21
13
0
LINE
8
0
10
79
20
13
11
65
21
13
0
LINE
8
0
10
65
20
13
11
65
21
-1
0
LINE
8
0
10
65
20
16
11
79
21
16
0
LINE
8
0
10
79
20
16
11
79
21
30
0
LINE
8
0
10
79
20
30
11
65
21
30
0
LINE
8
0
10
65
20
30
11
65
21
16
0
LINE
8
0
10
65
20
33
11
79
21
33
0
LINE
8
0
10
79
20
33
11
79
21
47
0
LINE
8
0
10
79
20
47
11
65
21
47
0
LINE
8
0
10
65
20
47
11
65
21
33
0
LINE
8
0
10
65
20
-22
11
79
21
-22
0
LINE
8
0
10
79
20
-22
11
79
21
-8
0
LINE
8
0
10
79
20
-8
11
65
21
-8
0
LINE
8
0
10
65
20
-8
11
65
21
-22
0
LINE
8
0
10
83.4986687
20
-23.4184249
11
94.9667974
21
-31.448495
0
LINE
8
0
10
94.9667974
20
-31.448495
11
102.9968675
21
-19.9803663
0
LINE
8
0
10
102.9968675
20
-19.9803663
11
91.5287388
21
-11.9502962
0
LINE
8
0
10
91.5287388
20
-11.9502962
11
83.4986687
21
-23.4184249
0
ENDSEC
0
EOF